<?xml version="1.0" encoding="UTF-8"?>
<svg version="1.1" xmlns="http://www.w3.org/2000/svg" width="448" height="388">
<path d="M0 0 C147.84 0 295.68 0 448 0 C448 128.04 448 256.08 448 388 C300.16 388 152.32 388 0 388 C0 259.96 0 131.92 0 0 Z " fill="#E92A29" transform="translate(0,0)"/>
<path d="M0 0 C4.96029156 2.26258913 7.34763619 5.28468657 10 10 C10.96709264 13.03818961 11.12670748 15.79946975 11.13130188 18.97853088 C11.13531006 19.98097839 11.13931824 20.9834259 11.14344788 22.01625061 C11.14291916 23.10989426 11.14239044 24.2035379 11.1418457 25.33032227 C11.14532013 26.48676239 11.14879456 27.64320251 11.15237427 28.83468628 C11.15972714 31.34629905 11.16507502 33.8579183 11.16866493 36.36953926 C11.17582435 40.34030991 11.1911311 44.31099544 11.21000671 48.28172302 C11.21634348 49.64182753 11.22266911 51.00193209 11.22898388 52.36203671 C11.23214969 53.04300502 11.2353155 53.72397333 11.23857725 54.42557704 C11.28064688 63.66741021 11.31365159 72.90920041 11.32592773 82.15112305 C11.33429907 88.38935792 11.35675034 94.62737052 11.3952834 100.86549419 C11.4150673 104.16602759 11.42523319 107.46615357 11.42244911 110.76675606 C11.42010934 114.44453834 11.4421614 118.12141229 11.4699707 121.79907227 C11.46336929 122.89474014 11.45676788 123.99040802 11.44996643 125.11927795 C11.46243408 126.11890564 11.47490173 127.11853333 11.48774719 128.14845276 C11.49013555 129.01803903 11.4925239 129.88762529 11.49498463 130.78356266 C11.82874954 133.14625947 11.82874954 133.14625947 13.7976408 134.82275295 C17.04447014 136.5583101 19.49746063 135.74092179 23 135 C24.17489072 131.27296275 24.14179658 127.70923471 24.17578125 123.8203125 C24.1989789 122.4023289 24.22309622 120.98436009 24.24804688 119.56640625 C24.28311996 117.3457647 24.31249595 115.12566978 24.32592773 112.90478516 C24.34147964 110.7509662 24.3817221 108.5987131 24.42578125 106.4453125 C24.44036377 105.16156738 24.45494629 103.87782227 24.4699707 102.55517578 C25.24342234 97.36724271 27.87982277 93.53211012 31.9375 90.25 C38.07631676 85.73984891 43.5576878 85.29954709 51 86 C56.55167471 87.91785126 59.34149933 90.82016494 62.03613281 95.98657227 C65.29967124 103.28365455 65.59058156 109.95875831 65.625 117.875 C65.65051527 120.2683326 65.68401867 122.66159704 65.7265625 125.0546875 C65.73252441 126.10124512 65.73848633 127.14780273 65.74462891 128.22607422 C66.00443738 131.04820027 66.36975514 132.69098653 68 135 C71.36760187 136.1716367 71.36760187 136.1716367 75 136 C77.59912251 134.8213337 77.59912251 134.8213337 79 132 C79.35192741 129.48929835 79.50864549 126.9941649 79.67578125 124.46484375 C80.33882407 119.42412061 83.43125073 116.36647248 87.125 113.1875 C91.78994367 109.63808634 95.23323681 109.22618513 101 110 C106.30590415 111.85045767 109.2577173 114.83685528 111.875 119.75 C115.6094552 128.32170255 116.28530325 136.45258048 116.65917969 145.70507812 C116.69043945 146.45853516 116.72169922 147.21199219 116.75390625 147.98828125 C116.77783447 148.66415283 116.8017627 149.34002441 116.82641602 150.03637695 C116.98082672 152.36577773 116.98082672 152.36577773 118 156 C121.63 156 125.26 156 129 156 C129.14695312 154.69675781 129.14695312 154.69675781 129.296875 153.3671875 C130.83205639 141.53570334 130.83205639 141.53570334 135 137 C139.23626907 134.44577895 143.17306596 134.33566587 148 135 C154.14690795 137.9552442 157.77929091 142.71774374 160.1171875 149.00390625 C166.53250653 173.23068124 158.34253402 202.8457439 153.0625 226.75 C152.81814209 227.8591275 152.81814209 227.8591275 152.56884766 228.99066162 C148.76646923 246.08467908 143.62579367 262.51895806 137.5625 278.9375 C134.17981987 288.13469 130.8348648 297.33866868 127.71484375 306.62890625 C127.47077286 307.35053452 127.22670197 308.07216278 126.97523499 308.81565857 C126.62965797 309.85545616 126.62965797 309.85545616 126.27709961 310.91625977 C126.0779747 311.51350357 125.87884979 312.11074738 125.6736908 312.72608948 C124.66846912 316.11901716 123.85826189 319.56695246 123 323 C78.45 323 33.9 323 -12 323 C-17.48126543 305.45995064 -17.48126543 305.45995064 -19.4375 298.80078125 C-34.22033944 249.22193541 -60.15825903 206.19166973 -88.54711914 163.2980957 C-89.27742844 162.19435356 -89.27742844 162.19435356 -90.02249146 161.0683136 C-90.94334064 159.67779926 -91.86530719 158.28802404 -92.7885437 156.89909363 C-96.47356463 151.33892656 -98.05637123 147.72130707 -97 141 C-94.47031526 137.71824682 -92.92268669 136.30756223 -89 135 C-79.34122469 133.93648864 -72.96755106 136.46290865 -65.44848633 142.45507812 C-57.84319643 148.76539178 -51.05247465 155.91128567 -44.51318359 163.30712891 C-43.53866392 164.39737083 -42.53764803 165.46477029 -41.50634766 166.50146484 C-37.7992724 170.40885131 -37.31669824 173.83057772 -37.375 179 C-37.375 184.41087619 -36.69365972 188.21127161 -34 193 C-34 193.66 -34 194.32 -34 195 C-31.36 195 -28.72 195 -26 195 C-24.50693929 192.01387857 -24.86843911 189.30535383 -24.86196899 185.97309875 C-24.85773707 184.87538478 -24.85773707 184.87538478 -24.85341966 183.75549477 C-24.84505211 181.29051784 -24.84373356 178.8255857 -24.84228516 176.3605957 C-24.83761843 174.59828057 -24.83247511 172.83596664 -24.82688904 171.07365417 C-24.81559468 167.27151413 -24.80716689 163.46938199 -24.80076981 159.66723061 C-24.79010306 153.65403435 -24.76986102 147.64089464 -24.74765015 141.62773132 C-24.68568372 124.52601719 -24.63172828 107.42430591 -24.59863281 90.32250977 C-24.58028439 80.88268892 -24.55134398 71.4429623 -24.5106281 62.00321072 C-24.48955868 57.00686515 -24.47410095 52.01063833 -24.47182083 47.01424599 C-24.46967248 42.31186549 -24.45378386 37.60973207 -24.42743111 32.90742683 C-24.42024332 31.18333041 -24.41813462 29.45920403 -24.42153358 27.73509598 C-24.42543903 25.377046 -24.41093973 23.01978098 -24.39199829 20.66181946 C-24.38868814 19.34348775 -24.385378 18.02515604 -24.38196754 16.66687489 C-23.88994197 11.94344682 -22.67512095 7.90102785 -19.46484375 4.2578125 C-12.95455037 -0.57079384 -8.0564875 -0.69672425 0 0 Z " fill="#FEFDFD" transform="translate(193,50)"/>
<path d="M0 0 C147.84 0 295.68 0 448 0 C448 128.04 448 256.08 448 388 C300.16 388 152.32 388 0 388 C0 322.33 0 256.66 0 189 C0.33 189 0.66 189 1 189 C1.09796875 189.88300781 1.1959375 190.76601562 1.296875 191.67578125 C3.08381085 206.01748188 7.53854123 219.53854123 18 230 C28.22174841 237.86017205 41.00634696 243.31542188 54.02441406 242.9831543 C55.21625305 242.95791183 56.40809204 242.93266937 57.63604736 242.90666199 C58.91630798 242.87945572 60.1965686 242.85224945 61.515625 242.82421875 C64.94518264 242.78581641 68.37487265 242.76707945 71.8045845 242.74791241 C75.38266079 242.72405595 78.95696966 242.67509381 82.53369141 242.5715332 C105.58162204 241.93351122 105.58162204 241.93351122 111.11312866 245.2774353 C114.80875659 248.90078259 116.32395261 253.18876933 118 258 C118.98512969 259.74200517 120.00861118 261.46331093 121.08203125 263.15234375 C121.99764286 264.74427055 122.90774875 266.33937587 123.8125 267.9375 C124.31185059 268.81809082 124.81120117 269.69868164 125.32568359 270.60595703 C170 349.96330544 170 349.96330544 170 387 C221.81 387 273.62 387 327 387 C327.66 384.03 328.32 381.06 329 378 C329.78870926 375.35308381 330.59985246 372.73648521 331.46875 370.1171875 C331.70511169 369.39302139 331.94147339 368.66885529 332.18499756 367.92274475 C332.69069568 366.37504538 333.19828766 364.8279637 333.7076416 363.28146362 C334.51598759 360.82644425 335.31874834 358.3696586 336.12011719 355.91235352 C337.98204405 350.20581557 339.85113391 344.50163436 341.72241211 338.79815674 C344.86636161 329.21467527 347.96841594 319.6197751 351 310 C351.36077637 308.86433594 351.72155273 307.72867187 352.09326172 306.55859375 C358.54671444 286.01703653 362.41000112 265.19323203 366 244 C366.85529297 243.9906543 367.71058594 243.98130859 368.59179688 243.97167969 C402.85763104 243.81684945 402.85763104 243.81684945 432.03515625 227.19140625 C444.15455476 213.6745423 446.30799042 196.07709414 446.2746582 178.6628418 C446.27901593 177.25537854 446.28420257 175.84791766 446.29014587 174.44046021 C446.30343433 170.64894301 446.30412589 166.85752612 446.30158257 163.06599021 C446.30050576 159.88552973 446.30541435 156.70508896 446.310188 153.52463275 C446.32124844 146.01258169 446.3217404 138.50058064 446.31567383 130.98852539 C446.3096389 123.27398954 446.32194077 115.55963629 446.3432439 107.84513158 C446.36093676 101.18995726 446.36684915 94.53484067 446.36360615 87.87964374 C446.36180509 83.91884912 446.3643103 79.95818475 446.37832069 75.99741173 C446.39102013 72.26834256 446.38884237 68.53955517 446.37590981 64.81048965 C446.37246763 62.81417841 446.38363244 60.81785805 446.39547729 58.82157898 C446.30792963 43.551959 443.5160782 28.67211204 432.875 17.125 C418.69098904 4.0520699 398.81826509 1.84414033 380.38267517 1.86628723 C378.98830353 1.86441761 377.59393242 1.8621163 376.19956213 1.85942191 C372.37726664 1.85331595 368.55499305 1.85343609 364.73269379 1.85461628 C360.60639938 1.8548206 356.48011195 1.84929848 352.3538208 1.84455872 C344.27210865 1.83625758 336.1904038 1.83350409 328.10868775 1.83294634 C321.53622354 1.83247081 314.96376174 1.83041419 308.39129829 1.82724571 C289.74415126 1.81843965 271.09700999 1.81382612 252.44986086 1.81457619 C251.44490531 1.81461614 250.43994976 1.8146561 249.40454102 1.81469727 C247.89525969 1.81475859 247.89525969 1.81475859 246.35548783 1.81482115 C230.06003437 1.81522733 213.76460404 1.80566468 197.46915727 1.7915589 C180.72434266 1.77717894 163.97953932 1.77028965 147.23471838 1.77115268 C137.83902959 1.77148414 128.44336503 1.76875918 119.04768181 1.75797462 C111.04539968 1.74884817 103.04315277 1.74671186 95.04086768 1.75348405 C90.9621983 1.75673879 86.88359642 1.756844 82.80493355 1.7481308 C79.06226721 1.74021806 75.31972135 1.74174543 71.57705779 1.75041493 C69.60043139 1.75265506 67.6238011 1.7451588 65.64718956 1.73717529 C46.87310548 1.8088592 28.39580002 4.92140074 13.94140625 17.83984375 C5.92905186 26.26573901 3.17872568 36.85838656 1 48 C0.67 48 0.34 48 0 48 C0 32.16 0 16.32 0 0 Z " fill="#FEFEFE" transform="translate(0,0)"/>
<path d="M0 0 C1.39898907 -0.00302912 2.79797649 -0.00692237 4.19696105 -0.01159257 C7.99960303 -0.02178333 11.8021498 -0.01971382 15.60479927 -0.01541197 C19.72215388 -0.01292838 23.83948652 -0.02197899 27.95683289 -0.02944946 C36.00684771 -0.04215305 44.05682911 -0.04399562 52.10685228 -0.0416492 C58.65434434 -0.03986114 65.20182631 -0.04162611 71.74931717 -0.04587364 C72.6836482 -0.04646883 73.61797924 -0.04706402 74.58062334 -0.04767724 C76.47913316 -0.04888908 78.37764298 -0.05010322 80.2761528 -0.05131962 C98.05193839 -0.06217827 115.82770497 -0.06004051 133.60349162 -0.05393478 C149.83896421 -0.04876616 166.07437679 -0.0600226 182.30983751 -0.07903299 C199.01194693 -0.09843873 215.71402801 -0.10666266 232.41614878 -0.10290974 C241.7805082 -0.10100197 251.14481654 -0.10344389 260.50916672 -0.11762428 C268.48049617 -0.12957392 276.45174309 -0.1309029 284.42307375 -0.11883412 C288.48384118 -0.11297071 292.54445794 -0.11177508 296.60521507 -0.12383652 C300.33357488 -0.13478128 304.06165978 -0.13149153 307.79000719 -0.11757483 C309.75388859 -0.11372318 311.71778261 -0.12440423 313.68163431 -0.13587171 C330.40884241 -0.03575881 348.6962485 2.7680554 361.55435181 14.26069641 C362.15763306 14.76085266 362.76091431 15.26100891 363.38247681 15.77632141 C373.28334701 24.64405733 376.8314646 37.94005564 377.82889938 50.8006115 C377.94019548 54.51120676 377.96012029 58.21035651 377.9425354 61.92256165 C377.94661416 63.32884627 377.95196326 64.73512769 377.95846558 66.1414032 C377.9719916 69.91633624 377.96690202 73.69101976 377.95732832 77.46595645 C377.94965293 81.44539917 377.95679907 85.42482266 377.96148682 89.40426636 C377.96692233 96.08406855 377.9598117 102.76377077 377.94546509 109.44355774 C377.92914952 117.12804067 377.93442802 124.8122846 377.9509443 132.49676174 C377.96463046 139.13418678 377.96644406 145.77154056 377.9586283 152.40897518 C377.95398982 156.35577333 377.95321975 160.30245978 377.96323776 164.24925041 C377.97200965 167.9636051 377.9657028 171.67765671 377.94855499 175.39197922 C377.94280231 177.37732292 377.95151803 179.36269277 377.9609375 181.34802246 C377.83599348 199.37357666 373.82688376 215.83536733 360.93325806 229.14350891 C346.92444815 241.6111197 329.36431014 243.60401354 311.42935181 243.38569641 C309.98144136 243.37564148 308.53352413 243.36652009 307.08560181 243.35835266 C303.57504144 243.33654985 300.06474152 243.30216022 296.55435181 243.26069641 C296.45251587 244.23136047 296.35067993 245.20202454 296.24575806 246.20210266 C292.72857847 278.6544298 282.65891574 309.37288167 272.55435181 340.26069641 C267.60435181 355.44069641 262.65435181 370.62069641 257.55435181 386.26069641 C205.74435181 386.26069641 153.93435181 386.26069641 100.55435181 386.26069641 C97.25435181 374.71069641 93.95435181 363.16069641 90.55435181 351.26069641 C78.6380084 313.32980049 61.63868641 277.38719832 39.55435181 244.26069641 C36.97545627 243.80335344 36.97545627 243.80335344 33.91812134 243.87593079 C32.14454758 243.86076416 32.14454758 243.86076416 30.33514404 243.84529114 C28.40564407 243.849823 28.40564407 243.849823 26.43716431 243.85444641 C25.10112235 243.8452088 23.76509137 243.83423666 22.42907715 243.8216095 C18.1791836 243.78477304 13.92938134 243.77114524 9.67935181 243.76069641 C4.78539692 243.74855468 -0.10813079 243.72651723 -5.0018959 243.68069458 C-6.94687688 243.66731418 -8.89195364 243.67146033 -10.8369751 243.67610168 C-26.33103119 243.54704561 -42.22005634 239.25995135 -53.70736694 228.26460266 C-67.26706744 212.63285804 -69.58023397 194.44055884 -69.62265015 174.54951477 C-69.62892856 173.18500095 -69.63557654 171.82048878 -69.64256287 170.45597839 C-69.66344327 166.00417739 -69.67395072 161.55237667 -69.68392944 157.10054016 C-69.68798311 155.55774481 -69.6921002 154.01494963 -69.69627953 152.47215462 C-69.71529667 145.21916948 -69.72953444 137.96619429 -69.7378915 130.71318907 C-69.74764854 122.38653452 -69.77394253 114.06014688 -69.81439239 105.73358625 C-69.84471128 99.26696408 -69.85937522 92.80041776 -69.86267251 86.33372599 C-69.86500513 82.48566785 -69.87372898 78.63789592 -69.89913368 74.78991508 C-70.16684715 32.03169227 -70.16684715 32.03169227 -55.50424194 16.17085266 C-40.24871465 2.01534441 -19.86955418 -0.05925293 0 0 Z M-47.94564819 26.19429016 C-52.6545755 32.68132803 -55.56145311 40.25395808 -55.59281921 48.2285614 C-55.59997452 49.47602142 -55.60712982 50.72348145 -55.61450195 52.00874329 C-55.61734229 53.39399694 -55.62005401 54.77925087 -55.62265015 56.164505 C-55.6289161 57.62167014 -55.63556302 59.07883369 -55.64256287 60.53599548 C-55.66360445 65.32703031 -55.67397096 70.11806544 -55.68392944 74.90913391 C-55.68797811 76.56156557 -55.69209507 78.21399706 -55.69627953 79.86642838 C-55.71533788 87.63681206 -55.72956293 95.40718625 -55.7378915 103.17758882 C-55.74764197 112.12578101 -55.7739012 121.07372439 -55.81439239 130.02182901 C-55.8446557 136.94942594 -55.85937033 143.87695201 -55.86267251 150.80461371 C-55.86501299 154.9360258 -55.87384051 159.06717231 -55.89913368 163.19851303 C-55.92259641 167.09412351 -55.92657556 170.98929707 -55.9163723 174.88496017 C-55.91588108 176.30501773 -55.92207763 177.72509811 -55.93592834 179.1450882 C-56.06300622 192.96090416 -53.4587158 206.97187546 -43.51596069 217.25679016 C-32.82550553 226.36129868 -20.12700157 228.42848393 -6.57846069 228.35835266 C-5.54373627 228.35693771 -4.50901184 228.35552277 -3.44293213 228.35406494 C-0.15214088 228.3484868 3.13858127 228.33593829 6.42935181 228.32319641 C8.66632999 228.31817859 10.90330924 228.31361617 13.14028931 228.30952454 C18.61166688 228.29852453 24.0830044 228.28180818 29.55435181 228.26069641 C28.9253649 226.98088556 28.29385333 225.7023153 27.6612854 224.42427063 C27.13418472 223.35606583 27.13418472 223.35606583 26.59643555 222.26628113 C25.31952884 219.80875831 23.82146503 217.61372797 22.17935181 215.38569641 C15.2089268 205.65113735 9.78742812 197.64631681 11.55435181 185.26069641 C14.90115831 177.92489175 21.33900972 174.22785605 28.36685181 170.94819641 C40.99664823 168.22412267 52.77321961 171.96399822 63.46060181 178.79975891 C65.91550614 180.51269589 68.23182254 182.37364139 70.55435181 184.26069641 C71.21435181 184.26069641 71.87435181 184.26069641 72.55435181 184.26069641 C72.55435181 184.92069641 72.55435181 185.58069641 72.55435181 186.26069641 C74.16942544 187.93351822 74.16942544 187.93351822 76.24185181 189.63569641 C76.92634399 190.22093079 77.61083618 190.80616516 78.31607056 191.40913391 C80.70736459 193.38727243 83.12910517 195.32441281 85.55435181 197.26069641 C85.55581837 196.54839182 85.55728493 195.83608723 85.55879593 195.10219765 C85.59590747 177.74054704 85.65497962 160.3791088 85.73825455 143.01761818 C85.77800119 134.62159037 85.81041583 126.2256557 85.8253479 117.82954407 C85.83838718 110.50832076 85.86540963 103.18730275 85.90896487 95.86619508 C85.9315288 91.99254505 85.94726555 88.11914775 85.94623566 84.24542618 C85.94548602 80.59270855 85.96355709 76.94054853 85.99551964 73.28797531 C86.00798218 71.32184975 86.00097832 69.3556303 85.99320984 67.38948059 C86.1091293 57.46017993 87.97667219 49.1271158 94.92544556 41.72554016 C102.59151645 34.83159151 111.9972235 33.65918684 121.94497681 33.81929016 C129.24772871 34.71237562 135.84412748 38.11297209 141.05435181 43.32319641 C147.99698139 53.08466751 148.157174 65.11864075 148.16372681 76.62397766 C148.17874807 78.15241207 148.19548331 79.68083049 148.21383667 81.20922852 C148.25708074 85.18586572 148.27741244 89.16228423 148.29257202 93.13911438 C148.31230014 97.2155783 148.35425106 101.29181122 148.39419556 105.36811829 C148.46903089 113.33224978 148.51960271 121.29628947 148.55435181 129.26069641 C149.44187134 128.62841125 149.44187134 128.62841125 150.34732056 127.98335266 C151.53261353 127.16157532 151.53261353 127.16157532 152.74185181 126.32319641 C153.51915649 125.77792297 154.29646118 125.23264954 155.09732056 124.67085266 C161.35269296 121.08072637 169.79478197 121.47626566 176.67935181 123.01069641 C185.36102398 125.54868525 191.0034761 129.43212082 195.74185181 137.20991516 C198.17038571 141.75448779 199.47710127 146.23352723 200.55435181 151.26069641 C201.22982056 150.83917297 201.90528931 150.41764954 202.60122681 149.98335266 C203.93927368 149.16157532 203.93927368 149.16157532 205.30435181 148.32319641 C206.18607056 147.77792297 207.06778931 147.23264954 207.97622681 146.67085266 C213.85921471 143.45303655 220.03795032 143.33308579 226.45669556 145.02632141 C235.69595532 148.40334814 242.90586088 153.84414385 247.28482056 162.79975891 C248.50181021 165.92916087 249.59627748 169.04358366 250.55435181 172.26069641 C252.82481181 171.75614974 254.83986751 171.13970741 256.98794556 170.22944641 C262.60040229 168.11089349 268.15991215 168.38866541 273.76138306 170.42866516 C282.94894103 174.83552096 290.58414025 181.24153886 294.10122681 191.07319641 C294.52422091 192.46253478 294.92439446 193.85897692 295.30435181 195.26069641 C295.61892334 196.39257385 295.61892334 196.39257385 295.93984985 197.5473175 C298.47023479 207.5939878 298.48404936 217.95242851 298.55435181 228.26069641 C327.06591787 229.52382833 327.06591787 229.52382833 351.86294556 217.18647766 C362.43339144 206.072963 363.85700134 193.52418871 363.84487915 178.77339172 C363.8508718 177.31386474 363.85767903 175.8543409 363.86523438 174.39482117 C363.88282786 170.44831692 363.88758697 166.50189952 363.88886595 162.55535984 C363.89029203 160.08411073 363.89457027 157.61288339 363.89986038 155.14163971 C363.91833953 146.5042278 363.92653376 137.86687743 363.92495728 129.22944641 C363.92375685 121.20417575 363.94484512 113.17917446 363.9764446 105.15397191 C364.00267998 98.24241485 364.01332152 91.33094536 364.01204646 84.41933894 C364.0115389 80.30090391 364.01710683 76.18270843 364.03840256 72.06432343 C364.05790767 68.18668575 364.05782671 64.30951309 364.04336929 60.43185806 C364.04129511 59.01783435 364.04589808 57.60378057 364.05809021 56.18980789 C364.15960359 43.58947218 362.36129727 32.76180583 353.30044556 23.52241516 C340.60046731 13.06254687 326.22478785 11.95290536 310.31124878 12 C308.90986102 11.99697276 307.50847491 11.99308043 306.10709167 11.98840743 C302.28852963 11.97819225 298.47006216 11.98029258 294.6514926 11.98458803 C290.52046942 11.98706715 286.38946832 11.97802639 282.25845337 11.97055054 C274.17741668 11.95783389 266.09641327 11.95600609 258.01536825 11.9583508 C251.44256139 11.96013768 244.86976459 11.9583764 238.29695892 11.95412636 C237.35958155 11.95353117 236.42220417 11.95293598 235.45642142 11.95232276 C233.55179153 11.95111093 231.64716164 11.9498968 229.74253175 11.94868038 C211.9004669 11.93781633 194.05842097 11.93996183 176.21635506 11.94606522 C159.9193234 11.9512322 143.62235155 11.93998268 127.32533172 11.92096701 C110.56452498 11.90156114 93.8037465 11.8933375 77.04292846 11.89709026 C67.64388672 11.89899828 58.24489587 11.89655381 48.84586334 11.88237572 C40.84337738 11.87042579 32.84097363 11.86909728 24.83848646 11.88116588 C20.76153102 11.88702958 16.68472565 11.88822415 12.60778046 11.87616348 C8.86453783 11.86521941 5.12156905 11.8685077 1.37833878 11.88242517 C-0.59359094 11.88627727 -2.56553324 11.87559505 -4.53743339 11.86412829 C-20.29364819 11.95806179 -36.66444118 14.07241628 -47.94564819 26.19429016 Z M104.55435181 53.26069641 C103.68810181 53.94132141 103.68810181 53.94132141 102.80435181 54.63569641 C99.36377496 59.10844632 99.30001438 64.37605156 99.28260803 69.80226135 C99.27497778 70.91039362 99.27497778 70.91039362 99.26719338 72.04091239 C99.25258261 74.50517785 99.25200013 76.96924232 99.25137329 79.43354797 C99.24370886 81.20456834 99.23516187 82.97558508 99.22579956 84.74659729 C99.20754606 88.55413968 99.19549161 92.3616332 99.18826103 96.16921234 C99.17676877 102.18558075 99.15131175 108.20184074 99.12394714 114.21815491 C99.08232607 123.72828362 99.04989487 133.23841753 99.02147299 142.74859405 C98.97044788 159.79597318 98.90843234 176.84330746 98.83613259 193.8906095 C98.81117233 199.87620692 98.79175849 205.86178986 98.77675045 211.84742022 C98.7665726 215.56228726 98.75242736 219.27713176 98.73727417 222.99198151 C98.7311003 224.71980256 98.72665133 226.44763074 98.72401619 228.17546082 C98.72022523 230.526038 98.71042916 232.87651488 98.69911194 235.22706604 C98.69332957 237.20368414 98.69332957 237.20368414 98.68743038 239.22023392 C98.55435181 242.26069641 98.55435181 242.26069641 97.55435181 244.26069641 C94.91435181 244.26069641 92.27435181 244.26069641 89.55435181 244.26069641 C86.53122052 236.80363923 86.53122052 236.80363923 86.69497681 232.95991516 C86.99640425 225.42233341 86.37234712 220.29205813 81.19180298 214.54023743 C78.87830469 212.20430599 76.51513249 209.93477498 74.09292603 207.71186829 C72.21615811 205.94171461 70.60467502 204.02169792 68.99185181 202.01069641 C62.07606014 194.04809757 52.79979343 185.32745827 41.98794556 183.92866516 C36.79729662 183.71980149 32.96444326 184.28388468 28.55435181 187.26069641 C25.84367568 191.3267106 25.88612786 194.48526757 26.55435181 199.26069641 C27.61798723 202.00611901 29.12636514 204.28901302 30.80435181 206.69819641 C31.25254272 207.37793518 31.70073364 208.05767395 32.1625061 208.75801086 C33.60690462 210.93939304 35.07883362 213.10027136 36.55435181 215.26069641 C38.49721288 218.15294744 40.43120075 221.05111656 42.36685181 223.94819641 C43.11563599 225.0641217 43.11563599 225.0641217 43.87954712 226.20259094 C70.84471461 266.530497 92.31974813 308.50733749 106.26504517 354.98457336 C108.00361753 360.75073411 109.78320178 366.50445882 111.55435181 372.26069641 C156.10435181 372.26069641 200.65435181 372.26069641 246.55435181 372.26069641 C248.53435181 365.66069641 250.51435181 359.06069641 252.55435181 352.26069641 C254.68190751 346.0148745 256.83610062 339.78627444 259.05435181 333.57319641 C259.60297187 332.02582736 260.15114881 330.47830112 260.69888306 328.93061829 C260.96949554 328.16691422 261.24010803 327.40321014 261.5189209 326.61636353 C262.0618467 325.08408574 262.60443087 323.55168685 263.14666748 322.01916504 C264.46022023 318.31384896 265.7884946 314.61535874 267.15151978 310.92793274 C270.72452566 301.18656306 273.4442935 291.451509 275.67935181 281.32319641 C275.8476651 280.57588257 276.01597839 279.82856873 276.18939209 279.05860901 C279.30153823 265.22011967 281.75685502 251.33528374 283.55435181 237.26069641 C283.65602661 236.51980774 283.75770142 235.77891907 283.86245728 235.01557922 C284.69881855 228.44097456 284.77397946 221.88186826 284.80435181 215.26069641 C284.82497681 214.13663391 284.84560181 213.01257141 284.86685181 211.85444641 C284.90484967 203.7229046 284.39700536 195.59397308 278.61685181 189.32319641 C278.13345337 188.77792297 277.65005493 188.23264954 277.15200806 187.67085266 C273.29739835 184.26861769 269.80029062 183.82524642 264.80825806 183.94038391 C261.28729065 184.44076403 259.18883085 185.9474953 256.55435181 188.26069641 C254.83196353 191.10742147 254.2572466 193.46302499 253.99185181 196.76069641 C253.73836296 199.78186965 253.30142749 202.27239368 252.55435181 205.26069641 C248.92435181 205.26069641 245.29435181 205.26069641 241.55435181 205.26069641 C240.68066795 201.76596097 240.39084982 198.69581726 240.26431274 195.11763 C239.86334023 183.99409952 239.29471009 172.01066664 231.55435181 163.26069641 C227.39695029 159.60218308 223.16812164 158.59891696 217.69107056 158.87788391 C211.61199835 159.96700471 208.08437118 164.62124238 204.55435181 169.26069641 C203.34932721 171.67074561 203.38129163 173.45048383 203.24185181 176.13569641 C202.92202721 179.43418589 202.66884681 181.0713393 200.92935181 183.94819641 C198.55435181 185.26069641 198.55435181 185.26069641 194.92935181 185.26069641 C191.55435181 184.26069641 191.55435181 184.26069641 190.36050415 182.56977844 C189.36444611 179.71674484 189.29813175 177.33774309 189.28091431 174.31538391 C189.24997681 172.57514954 189.24997681 172.57514954 189.21841431 170.79975891 C189.19262324 168.38055688 189.17424557 165.96126305 189.16372681 163.54194641 C188.9599767 153.28652416 187.07718202 144.60004296 179.55435181 137.26069641 C173.78649075 134.45418684 167.44196402 134.14899908 161.27310181 135.91304016 C155.64751709 138.43373485 151.31437167 142.74065668 148.55435181 148.26069641 C148.41084185 150.60974731 148.32773015 152.96258749 148.27310181 155.31538391 C148.25469238 156.01334076 148.23628296 156.71129761 148.21731567 157.43040466 C148.15852505 159.66541563 148.1057521 161.900504 148.05435181 164.13569641 C147.98653697 167.07074792 147.91279941 170.00556596 147.83560181 172.94038391 C147.80530884 174.24733215 147.77501587 175.5542804 147.74380493 176.90083313 C147.59428352 179.55252605 147.34124752 181.74470091 146.55435181 184.26069641 C140.19826473 185.60525329 140.19826473 185.60525329 137.35115147 184.08176708 C135.05129977 181.75084919 135.05477349 180.67317905 135.05555725 177.43606567 C135.04597992 176.44221863 135.03640259 175.44837158 135.02653503 174.42440796 C135.03627853 173.33502426 135.04602203 172.24564056 135.05606079 171.12324524 C135.05054199 169.9749826 135.04502319 168.82671997 135.03933716 167.6436615 C135.02999841 165.14569625 135.02992734 162.6476834 135.03793144 160.14971352 C135.05052027 156.19425222 135.03930727 152.23949304 135.02189636 148.28405762 C134.99105778 140.59439441 134.98957459 132.90486254 134.99154663 125.21514893 C134.99293857 115.44547866 134.98247686 105.67591077 134.9429689 95.90631503 C134.92569262 91.34859907 134.93261587 86.79127173 134.94410706 82.23355103 C134.93796088 79.83740522 134.93104849 77.44126123 134.92324829 75.04512024 C134.93096756 73.9658577 134.93868683 72.88659515 134.94664001 71.77462769 C134.90357123 65.35051106 134.7495926 58.6833944 130.10242367 53.70541096 C124.64134667 49.01864084 120.78341154 48.92515628 113.76528931 48.97163391 C109.41074904 49.36364849 107.73268628 50.33328308 104.55435181 53.26069641 Z " fill="#251F20" transform="translate(69.44564819335938,0.7393035888671875)"/>
<path d="M0 0 C6.3457347 4.2304898 8.79015321 10.09875932 10.5594635 17.33673096 C11.55781095 23.37225325 11.36613344 29.55145594 11.4140625 35.65625 C11.43279858 37.16940335 11.45237377 38.68254653 11.4727478 40.19567871 C11.52381759 44.15423549 11.56357691 48.11282605 11.60089111 52.0715332 C11.64108958 56.12068871 11.69210919 60.16970676 11.7421875 64.21875 C11.83864846 72.14573901 11.92314744 80.07279673 12 88 C12.763125 87.38125 13.52625 86.7625 14.3125 86.125 C20.99056424 80.84467014 26.70179945 80.50439537 35 81 C43.86981836 82.27634909 50.78818488 85.87951168 56.453125 92.84375 C58.71640818 95.99862959 60.92548639 99.23920236 62 103 C61.59375 105.234375 61.59375 105.234375 61 107 C60.67 105.68 60.34 104.36 60 103 C59.01 103 58.02 103 57 103 C56.67 102.34 56.34 101.68 56 101 C55.4740625 101.7734375 55.4740625 101.7734375 54.9375 102.5625 C53 104 53 104 49.5625 104 C45.32642507 102.81092634 44.53356889 101.46254416 42 98 C38.42543429 96.20043341 35.47851118 95.72764881 31.5 95.75 C30.5821875 95.74484375 29.664375 95.7396875 28.71875 95.734375 C25.81424199 96.01814877 23.67563128 96.87623486 21 98 C20.01 98 19.02 98 18 98 C16 93.25 16 93.25 16 91 C14.02 91 12.04 91 10 91 C9.99191315 90.17029694 9.98382629 89.34059387 9.97549438 88.48574829 C9.89724699 80.63031454 9.80986773 72.77504519 9.71247292 64.9198246 C9.66272824 60.88229367 9.61639809 56.84478617 9.578125 52.80712891 C9.54099414 48.90367342 9.49456275 45.00042513 9.44193649 41.0971489 C9.42353903 39.61501103 9.40837829 38.13282901 9.39665604 36.65062332 C9.3304201 28.55807908 8.93767717 20.88508188 7 13 C6.66044499 11.33458975 6.32558495 9.66819763 6 8 C5.01 7.67 4.02 7.34 3 7 C0 2.66666667 0 2.66666667 0 0 Z M15 95 C17 96 17 96 17 96 Z " fill="#241E1F" transform="translate(207,41)"/>
<path d="M0 0 C1.23854359 -0.00384115 2.47708717 -0.00768229 3.75316238 -0.01163983 C5.12473303 -0.01085964 6.49630362 -0.00998086 7.86787415 -0.00901413 C9.32722934 -0.0115986 10.78658383 -0.01461198 12.24593735 -0.01801753 C16.25710488 -0.02608151 20.26825452 -0.02787677 24.2794292 -0.028615 C28.60547029 -0.03046665 32.93150211 -0.03801466 37.25753784 -0.04475021 C46.71855543 -0.05833079 56.17956877 -0.06435811 65.64059448 -0.06876087 C71.55029897 -0.07152432 77.46000182 -0.07576191 83.3697052 -0.08026505 C99.73739011 -0.09245841 116.10507371 -0.1027569 132.47276306 -0.10614014 C134.04409718 -0.10646949 134.04409718 -0.10646949 135.64717543 -0.10680549 C136.6972205 -0.10702377 137.74726556 -0.10724204 138.82913017 -0.10746694 C140.9568723 -0.1079104 143.08461444 -0.10835696 145.21235657 -0.10880661 C146.26778727 -0.10902804 147.32321797 -0.10924947 148.41063142 -0.10947761 C165.50228013 -0.11342338 182.59388615 -0.13087036 199.68551838 -0.15416613 C217.24048379 -0.17789986 234.7954278 -0.19034294 252.35040951 -0.19150805 C262.20386009 -0.19242379 272.05725507 -0.19815036 281.91069031 -0.21632767 C290.30355774 -0.23175609 298.69635239 -0.23683304 307.08923131 -0.22858956 C311.36829447 -0.22469248 315.6472112 -0.22556639 319.92625618 -0.23964691 C323.85095237 -0.25244276 327.77539297 -0.25113888 331.7000891 -0.2390562 C333.11268088 -0.23710896 334.52529112 -0.24013215 335.93785703 -0.24890056 C347.33913273 -0.31513767 360.94236101 -0.04732614 369.87690735 8.13142776 C369.87690735 8.79142776 369.87690735 9.45142776 369.87690735 10.13142776 C371.85690735 10.62642776 371.85690735 10.62642776 373.87690735 11.13142776 C374.20690735 12.78142776 374.53690735 14.43142776 374.87690735 16.13142776 C373.99003235 15.26517776 373.10315735 14.39892776 372.18940735 13.50642776 C359.6639611 2.84969728 344.3629514 1.82418241 328.63380432 1.87073135 C327.23241656 1.86770411 325.83103045 1.86381178 324.42964721 1.85913879 C320.61108517 1.8489236 316.7926177 1.85102393 312.97404814 1.85531938 C308.84302496 1.8577985 304.71202386 1.84875774 300.58100891 1.84128189 C292.49997222 1.82856525 284.41896881 1.82673744 276.33792379 1.82908215 C269.76511693 1.83086903 263.19232013 1.82910775 256.61951447 1.82485771 C255.68213709 1.82426252 254.74475971 1.82366733 253.77897696 1.82305411 C251.87434707 1.82184229 249.96971718 1.82062815 248.06508729 1.81941173 C230.22302244 1.80854768 212.38097651 1.81069319 194.5389106 1.81679658 C178.24187894 1.82196356 161.94490709 1.81071404 145.64788726 1.79169836 C128.88708052 1.77229249 112.12630204 1.76406885 95.365484 1.76782161 C85.96644227 1.76972963 76.56745141 1.76728517 67.16841888 1.75310707 C59.16593293 1.74115714 51.16352917 1.73982864 43.161042 1.75189724 C39.08408656 1.75776094 35.00728119 1.75895551 30.930336 1.74689484 C27.18709338 1.73595076 23.4441246 1.73923905 19.70089433 1.75315652 C17.7289646 1.75700862 15.7570223 1.7463264 13.78512216 1.73485965 C0.06101991 1.81667834 -12.38328251 3.61974848 -24.12309265 11.13142776 C-25.11309265 11.62642776 -25.11309265 11.62642776 -26.12309265 12.13142776 C-26.04496765 10.36189651 -26.04496765 10.36189651 -25.12309265 8.13142776 C-22.8636589 6.70301612 -20.77749505 5.56095277 -18.37309265 4.44392776 C-17.75176453 4.13648636 -17.1304364 3.82904495 -16.49028015 3.51228714 C-10.87230887 0.80404571 -6.19079537 0.00721561 0 0 Z " fill="#530A0B" transform="translate(51.12309265136719,11.868572235107422)"/>
<path d="M0 0 C1.40769174 -0.00274988 2.8153814 -0.00680983 4.22306609 -0.01204365 C8.04036727 -0.0225032 11.85742992 -0.0145857 15.67472029 -0.00329316 C19.8110495 0.00562829 23.94735014 -0.00291725 28.0836792 -0.00915527 C36.16552292 -0.01859844 44.24727676 -0.01208349 52.32911375 0.00010767 C61.75334476 0.01378973 71.17755484 0.01208443 80.60179326 0.00997434 C97.42137581 0.00679117 114.24091588 0.01841476 131.06048584 0.03804016 C147.35997816 0.05705356 163.65942073 0.06412369 179.95892334 0.05854797 C197.73909712 0.05248368 215.51924909 0.05267823 233.29942107 0.06403381 C235.19680389 0.06524102 237.0941867 0.066447 238.99156952 0.06765175 C239.92495866 0.06825529 240.8583478 0.06885883 241.82002147 0.06948065 C248.38089421 0.0733513 254.94175881 0.07296954 261.50263214 0.0710659 C269.50073533 0.06893905 277.49879507 0.0742054 285.49688604 0.08867946 C289.57333952 0.09589866 293.64972989 0.10002164 297.72618866 0.0954361 C301.46408229 0.09133378 305.2018461 0.09659801 308.93972012 0.10906217 C310.91838391 0.11333643 312.89706148 0.10792855 314.87572122 0.10207289 C325.4025067 0.15330394 335.36773794 0.82860086 344.8114624 5.7492218 C345.96775146 6.33445618 347.12404053 6.91969055 348.31536865 7.5226593 C351.08519666 9.27085967 352.5447164 10.6207425 354.2489624 13.3742218 C352.5989624 13.3742218 350.9489624 13.3742218 349.2489624 13.3742218 C348.9189624 12.3842218 348.5889624 11.3942218 348.2489624 10.3742218 C345.92626281 9.12923571 345.92626281 9.12923571 343.1864624 8.1867218 C342.26736084 7.84254211 341.34825928 7.49836243 340.40130615 7.14375305 C339.69103271 6.88980774 338.98075928 6.63586243 338.2489624 6.3742218 C338.2489624 5.7142218 338.2489624 5.0542218 338.2489624 4.3742218 C322.30455541 1.93782133 306.32787117 2.07947777 290.24151039 2.09811342 C286.20057302 2.10060659 282.15965764 2.09153496 278.11872864 2.08407593 C270.22701131 2.07140003 262.33532811 2.06952613 254.44360231 2.07187619 C248.02492441 2.07366679 241.60625678 2.0718939 235.18758011 2.06765175 C234.2704432 2.06705656 233.35330629 2.06646137 232.40837736 2.06584815 C230.54465567 2.06463628 228.68093398 2.06342214 226.8172123 2.06220577 C209.38572566 2.05135856 191.95425843 2.05347988 174.52277072 2.05959062 C158.60441177 2.06476254 142.68611397 2.05349201 126.76776712 2.0344924 C110.38193442 2.01508614 93.99613061 2.00686255 77.61028636 2.01061565 C68.42707404 2.01252278 59.2439138 2.01008741 50.06071091 1.99590111 C42.24684843 1.98395104 34.43307013 1.98262324 26.61920641 1.99469128 C22.63942075 2.00055335 18.65978881 2.0017539 14.68001366 1.98968887 C-9.670278 1.06951296 -9.670278 1.06951296 -32.7510376 7.3742218 C-35.0010376 6.9992218 -35.0010376 6.9992218 -36.7510376 6.3742218 C-25.6283782 0.24713835 -12.42524728 -0.07225379 0 0 Z " fill="#B83D3E" transform="translate(68.75103759765625,12.625778198242188)"/>
<path d="M0 0 C2 0 2 0 4 1.875 C6.35185126 5.54976759 6.93122371 8.63090865 7.60546875 12.890625 C7.79043052 14.97878152 7.79043052 14.97878152 9 16 C9.10759057 17.93436043 9.14412522 19.87268722 9.15390015 21.81001282 C9.16250061 23.07299698 9.17110107 24.33598114 9.17996216 25.63723755 C9.18439799 27.05023152 9.18869629 28.46322593 9.19287109 29.8762207 C9.20076928 31.35441787 9.20903805 32.8326131 9.21765137 34.31080627 C9.24392774 39.18244574 9.25919519 44.05409398 9.2734375 48.92578125 C9.27879689 50.60361423 9.2841744 52.28144715 9.28956985 53.95928001 C9.31121629 60.94464657 9.32994815 67.93001077 9.34119225 74.91540241 C9.35739456 84.91543635 9.39046104 94.91507936 9.44759309 104.91496593 C9.48640472 111.94951029 9.50583878 118.98395065 9.51111281 126.01859921 C9.51475403 130.21658517 9.52664122 134.41415474 9.55921555 138.61202431 C9.58949042 142.57086767 9.5955398 146.52904709 9.58383179 150.4879818 C9.58361259 151.93265647 9.59178882 153.37736364 9.60948563 154.82192993 C9.75529688 167.42186071 6.42300943 176.74717174 -0.3125 187.25 C-1.00988281 188.34828125 -1.70726562 189.4465625 -2.42578125 190.578125 C-3.20501953 191.77695312 -3.20501953 191.77695312 -4 193 C-4.99 192.67 -5.98 192.34 -7 192 C-6.43732422 191.30777344 -6.43732422 191.30777344 -5.86328125 190.6015625 C3.87381321 178.19105924 6.30327977 167.03038169 6.29052734 151.51269531 C6.29652 150.05316832 6.30332723 148.59364449 6.31088257 147.13412476 C6.32847605 143.18762051 6.33323516 139.24120311 6.33451414 135.29466343 C6.33594022 132.82341432 6.34021846 130.35218698 6.34550858 127.8809433 C6.36398772 119.24353139 6.37218195 110.60618102 6.37060547 101.96875 C6.36940504 93.94347934 6.39049331 85.91847804 6.4220928 77.8932755 C6.44832817 70.98171843 6.45896971 64.07024895 6.45769465 57.15864253 C6.45718709 53.0402075 6.46275503 48.92201202 6.48405075 44.80362701 C6.50355587 40.92598934 6.50347491 37.04881668 6.48901749 33.17116165 C6.4869433 31.75713794 6.49154627 30.34308416 6.5037384 28.92911148 C6.58923312 18.31708927 4.92305943 9.44855824 0 0 Z " fill="#381515" transform="translate(426,28)"/>
<path d="M0 0 C0.99 0.33 1.98 0.66 3 1 C2.20335937 1.63615234 2.20335937 1.63615234 1.390625 2.28515625 C-5.16956158 7.7320265 -8.5998022 12.71203074 -11 21 C-11.30530132 23.95189357 -11.30530132 23.95189357 -11.2784729 27.03646851 C-11.28963638 28.22269806 -11.30079987 29.40892761 -11.31230164 30.63110352 C-11.31446182 31.91863525 -11.31662201 33.20616699 -11.31884766 34.53271484 C-11.32815359 35.91289859 -11.33832325 37.29307674 -11.34928894 38.67324829 C-11.37652814 42.40829923 -11.39172024 46.14331257 -11.40471697 49.87843657 C-11.4203742 53.78623979 -11.44715613 57.69396657 -11.4727478 61.60171509 C-11.51948977 68.99634042 -11.55625602 76.39098022 -11.58942068 83.78567755 C-11.62767448 92.20650184 -11.67707609 100.62724925 -11.72740483 109.04800868 C-11.83065651 126.36528347 -11.91993886 143.68260279 -12 161 C-12.46543213 160.60022949 -12.93086426 160.20045898 -13.41040039 159.78857422 C-14.02906982 159.2576416 -14.64773926 158.72670898 -15.28515625 158.1796875 C-15.89496338 157.65616699 -16.50477051 157.13264648 -17.13305664 156.59326172 C-19.73603936 154.37185918 -22.36589799 152.18437727 -25 150 C-23.68 149.67 -22.36 149.34 -21 149 C-21 149.66 -21 150.32 -21 151 C-19.68 151.33 -18.36 151.66 -17 152 C-16.67 153.32 -16.34 154.64 -16 156 C-15.34 156 -14.68 156 -14 156 C-14 111.12 -14 66.24 -14 20 C-13.34 20 -12.68 20 -12 20 C-12 18.02 -12 16.04 -12 14 C-11.34 14 -10.68 14 -10 14 C-10 12.68 -10 11.36 -10 10 C-9.34 10 -8.68 10 -8 10 C-8 9.01 -8 8.02 -8 7 C-6.35546875 5.140625 -6.35546875 5.140625 -4.1875 3.25 C-3.47980469 2.61578125 -2.77210938 1.9815625 -2.04296875 1.328125 C-1.03169922 0.67070313 -1.03169922 0.67070313 0 0 Z " fill="#D93030" transform="translate(167,37)"/>
<path d="M0 0 C2.37929515 4.7585903 3.1265667 7.72936709 3.14717102 12.96786499 C3.15432632 14.21532501 3.16148163 15.46278503 3.16885376 16.74804688 C3.17169409 18.13330053 3.17440581 19.51855446 3.17700195 20.90380859 C3.1832679 22.36097373 3.18991482 23.81813727 3.19691467 25.27529907 C3.21795626 30.0663339 3.22832277 34.85736903 3.23828125 39.6484375 C3.24232992 41.30086916 3.24644687 42.95330065 3.25063133 44.60573196 C3.26968968 52.37611565 3.28391474 60.14648984 3.2922433 67.91689241 C3.30199378 76.8650846 3.32825301 85.81302798 3.36874419 94.7611326 C3.3990075 101.68872953 3.41372214 108.6162556 3.41702431 115.5439173 C3.4193648 119.67532939 3.42819232 123.8064759 3.45348549 127.93781662 C3.47694821 131.8334271 3.48092737 135.72860066 3.47072411 139.62426376 C3.47023288 141.04432131 3.47642943 142.4644017 3.49028015 143.88439178 C3.59535713 155.3082861 2.36261408 166.79673241 -5 176 C-5.33 175.34 -5.66 174.68 -6 174 C-5.00217877 172.33696462 -4.00279103 170.67483013 -2.9921875 169.01953125 C-1.38002804 165.73808857 -1.25427109 162.62336304 -1 159 C-0.34 159 0.32 159 1 159 C0.67 106.53 0.34 54.06 0 0 Z " fill="#D03332" transform="translate(430,37)"/>
<path d="M0 0 C2 0 2 0 4 1.875 C9.16511084 9.94548568 8.27739521 20.20453009 8.22705078 29.44580078 C8.22648552 30.87582898 8.22680547 32.30585776 8.22793579 33.73588562 C8.22850582 37.58852822 8.21680865 41.44104437 8.20278788 45.29365778 C8.19022175 49.33084618 8.1891054 53.36803798 8.18673706 57.40524292 C8.18053949 65.03707857 8.16415216 72.66885641 8.14403808 80.30066669 C8.12162524 88.9948 8.11067215 97.68893617 8.10064721 106.38309121 C8.07978427 124.25542682 8.04464205 142.12770875 8 160 C7.67 160 7.34 160 7 160 C6.99853344 159.26892406 6.99706688 158.53784813 6.99555588 157.78461838 C6.95842372 139.95494277 6.89932441 122.12546204 6.81609726 104.2959404 C6.77637216 95.67352761 6.74394663 87.05120523 6.72900391 78.42871094 C6.71595341 70.90897251 6.68890258 63.38943354 6.64538693 55.86980748 C6.62284809 51.89213758 6.60708473 47.91471299 6.60811615 43.93697357 C6.60886729 40.18412213 6.59073704 36.4318114 6.55883217 32.67910004 C6.54640521 30.66326142 6.55336169 28.64733163 6.56114197 26.63146973 C6.45093159 16.90280157 4.5080548 8.64114227 0 0 Z " fill="#781818" transform="translate(426,28)"/>
<path d="M0 0 C0.33 0 0.66 0 1 0 C1 44.88 1 89.76 1 136 C-1.31 134.02 -3.62 132.04 -6 130 C-7.99702063 128.32976457 -9.99599938 126.66185417 -12 125 C-10.02 124.505 -10.02 124.505 -8 124 C-8 124.66 -8 125.32 -8 126 C-7.38125 126.0825 -6.7625 126.165 -6.125 126.25 C-4 127 -4 127 -2.875 129 C-2.58625 129.66 -2.2975 130.32 -2 131 C-1.34 131.33 -0.68 131.66 0 132 C0 88.44 0 44.88 0 0 Z " fill="#AB3939" transform="translate(154,62)"/>
<path d="M0 0 C0.6875 1.6875 0.6875 1.6875 1 4 C0.02616054 5.68208635 -0.97695052 7.34738161 -2 9 C-2.84114422 12.97865424 -3.13176046 16.78724773 -3.15821838 20.84664917 C-3.1680072 21.99080795 -3.17779602 23.13496674 -3.18788147 24.313797 C-3.19363693 25.55457504 -3.1993924 26.79535309 -3.20532227 28.07373047 C-3.21522186 29.39133865 -3.22512146 30.70894684 -3.23532104 32.06648254 C-3.26226674 35.66723293 -3.28333198 39.26799629 -3.30332303 42.8687911 C-3.32524664 46.63643833 -3.35260403 50.40404606 -3.37937927 54.17166138 C-3.4292202 61.30067412 -3.4741908 68.4297089 -3.51740164 75.55876458 C-3.56684768 83.67727592 -3.62173841 91.79574762 -3.67708123 99.91422057 C-3.79076919 116.60944379 -3.89763675 133.30470342 -4 150 C-4.33 150 -4.66 150 -5 150 C-5.09359664 132.04940037 -5.16405411 114.09886441 -5.20724869 96.1480732 C-5.22784112 87.81249948 -5.25589789 79.47707772 -5.30175781 71.14160156 C-5.34172762 63.87322187 -5.36745693 56.60495227 -5.37635398 49.33646572 C-5.38155165 45.49068304 -5.39369794 41.64521523 -5.42292023 37.79953384 C-5.4502502 34.17319882 -5.45840997 30.54730569 -5.45243073 26.92087746 C-5.45404057 24.96896831 -5.47547082 23.01710632 -5.49768066 21.06532288 C-5.46555777 14.15245855 -5.27728703 5.27728703 0 0 Z " fill="#4E0C0C" transform="translate(160,47)"/>
<path d="M0 0 C0.66 0 1.32 0 2 0 C2.33 22.44 2.66 44.88 3 68 C4.65 66.68 6.3 65.36 8 64 C18.4843158 59.72068743 28.81575643 61.95519404 39 66 C38.505 67.485 38.505 67.485 38 69 C36.96875 68.525625 35.9375 68.05125 34.875 67.5625 C27.61107399 64.48874289 19.43028512 63.97762651 11.75 65.75 C8.57521329 67.19308487 5.84745885 68.99383581 3 71 C2.01 71.495 2.01 71.495 1 72 C0.67 48.24 0.34 24.48 0 0 Z " fill="#C93536" transform="translate(217,58)"/>
<path d="M0 0 C1.85625 0.6496875 1.85625 0.6496875 3.75 1.3125 C5.49912199 1.8777243 7.24916968 2.4400898 9 3 C9.75990234 3.26876953 10.51980469 3.53753906 11.30273438 3.81445312 C22.18271208 7.15120263 33.49412825 6.3244097 44.75 6.1875 C46.91144902 6.17242691 49.07290819 6.15874315 51.234375 6.14648438 C56.48980774 6.11368487 61.74485559 6.06369376 67 6 C66.505 4.02 66.505 4.02 66 2 C67.32 2.33 68.64 2.66 70 3 C70 5.31 70 7.62 70 10 C63.42006069 9.93231232 56.84068389 9.8422502 50.26123047 9.73754883 C48.02887689 9.70455442 45.79644499 9.67644565 43.56396484 9.65356445 C12.63459489 9.32806504 12.63459489 9.32806504 0 2 C0 1.34 0 0.68 0 0 Z " fill="#4D1516" transform="translate(31,222)"/>
<path d="M0 0 C6.3457347 4.2304898 8.79015321 10.09875932 10.5594635 17.33673096 C11.55781095 23.37225325 11.36613344 29.55145594 11.4140625 35.65625 C11.43279858 37.16940335 11.45237377 38.68254653 11.4727478 40.19567871 C11.52381759 44.15423549 11.56357691 48.11282605 11.60089111 52.0715332 C11.64108958 56.12068871 11.69210919 60.16970676 11.7421875 64.21875 C11.83864846 72.14573901 11.92314744 80.07279673 12 88 C12.99 87.01 13.98 86.02 15 85 C15.66 85.33 16.32 85.66 17 86 C14.51923077 89.84519231 14.51923077 89.84519231 11.890625 90.62890625 C11.26671875 90.75136719 10.6428125 90.87382812 10 91 C9.99191315 90.17029694 9.98382629 89.34059387 9.97549438 88.48574829 C9.89724699 80.63031454 9.80986773 72.77504519 9.71247292 64.9198246 C9.66272824 60.88229367 9.61639809 56.84478617 9.578125 52.80712891 C9.54099414 48.90367342 9.49456275 45.00042513 9.44193649 41.0971489 C9.42353903 39.61501103 9.40837829 38.13282901 9.39665604 36.65062332 C9.3304201 28.55807908 8.93767717 20.88508188 7 13 C6.66044499 11.33458975 6.32558495 9.66819763 6 8 C5.01 7.67 4.02 7.34 3 7 C0 2.66666667 0 2.66666667 0 0 Z " fill="#5F1B1E" transform="translate(207,41)"/>
<path d="M0 0 C0.66 0.33 1.32 0.66 2 1 C0.59138651 2.01131225 -0.82725453 3.00866767 -2.25 4 C-3.03890625 4.556875 -3.8278125 5.11375 -4.640625 5.6875 C-7 7 -7 7 -11 7 C-11 7.66 -11 8.32 -11 9 C-19.23451758 11.13131517 -27.1565543 11.23837775 -35.625 11.125 C-36.91535156 11.11597656 -38.20570313 11.10695312 -39.53515625 11.09765625 C-42.69030249 11.0742848 -45.84504926 11.04152091 -49 11 C-49 10.34 -49 9.68 -49 9 C-48.35675781 8.98541748 -47.71351563 8.97083496 -47.05078125 8.95581055 C-23.30900013 9.09820282 -23.30900013 9.09820282 -1.6015625 0.890625 C-1.07304687 0.59671875 -0.54453125 0.3028125 0 0 Z " fill="#4D1414" transform="translate(417,220)"/>
<path d="M0 0 C1.8125 0.125 1.8125 0.125 4 1 C5.5625 3.6875 5.5625 3.6875 7 7 C7.495 7.9075 7.99 8.815 8.5 9.75 C12.72862833 18.91202805 13.39701491 27.08977326 13.1875 37.125 C13.17396484 38.36765625 13.16042969 39.6103125 13.14648438 40.890625 C13.11144612 43.92727376 13.05765133 46.96369637 13 50 C20.59 50 28.18 50 36 50 C36 50.33 36 50.66 36 51 C28.08 51 20.16 51 12 51 C11.938125 47.57625 11.87625 44.1525 11.8125 40.625 C11.3678039 27.83907597 10.21348398 13.18948383 1.13671875 3.3125 C0 2 0 2 0 0 Z " fill="#C73738" transform="translate(356,178)"/>
<path d="M0 0 C22.80127986 -0.82555811 22.80127986 -0.82555811 32 4 C32 4.66 32 5.32 32 6 C33.32 6 34.64 6 36 6 C36.66 7.32 37.32 8.64 38 10 C33.27273518 8.13168762 28.60713923 6.12832388 23.9375 4.12109375 C15.08973939 0.74435533 5.93659765 0.86119406 -2.70703125 4.72265625 C-7.50402601 7.39491739 -11.16107451 11.13815555 -15 15 C-13.79135813 11.56001929 -12.61442808 9.50075729 -10 7 C-9.67 6.01 -9.34 5.02 -9 4 C-6.93359375 3.26953125 -6.93359375 3.26953125 -4.4375 2.8125 C-3.61121094 2.65394531 -2.78492187 2.49539062 -1.93359375 2.33203125 C-1.29550781 2.22246094 -0.65742187 2.11289063 0 2 C0 1.34 0 0.68 0 0 Z " fill="#C53436" transform="translate(96,169)"/>
<path d="M0 0 C4.69157756 4.2998165 9.22242605 9.77849117 11 16 C10.59375 18.234375 10.59375 18.234375 10 20 C7.52214277 16.33708062 6.51035831 13.3890815 6 9 C5.34 9 4.68 9 4 9 C2.66796875 7.5390625 2.66796875 7.5390625 1.1875 5.625 C-1.34332663 2.56589403 -3.14965723 1.18472085 -7 0 C-8.06734375 -0.75796875 -8.06734375 -0.75796875 -9.15625 -1.53125 C-12.79130921 -3.40869816 -15.95183607 -3.3684227 -19.9375 -3.25 C-20.62779297 -3.24484375 -21.31808594 -3.2396875 -22.02929688 -3.234375 C-26.10766323 -3.172523 -29.99816606 -2.77656871 -34 -2 C-26.60961754 -10.94625245 -8.23480036 -5.57788081 0 0 Z " fill="#501313" transform="translate(258,128)"/>
<path d="M0 0 C-0.99 0.33 -1.98 0.66 -3 1 C-4.00933594 0.3709375 -5.01867187 -0.258125 -6.05859375 -0.90625 C-10.61843335 -3.68503326 -14.83726333 -3.59309999 -20.0625 -3.5 C-20.93455078 -3.51546875 -21.80660156 -3.5309375 -22.70507812 -3.546875 C-28.33382597 -3.5127872 -31.50060508 -2.66181525 -36 1 C-37.65948148 2.01187895 -39.32580562 3.0126546 -41 4 C-41.928125 4.556875 -42.85625 5.11375 -43.8125 5.6875 C-44.534375 6.120625 -45.25625 6.55375 -46 7 C-43.58901021 1.65890779 -39.97446357 -1.70529013 -34.5859375 -4.05078125 C-21.87637546 -8.00611693 -11.31052398 -6.96032245 0 0 Z " fill="#501413" transform="translate(207,40)"/>
<path d="M0 0 C27.22973458 -0.94377771 27.22973458 -0.94377771 37 8 C37 8.66 37 9.32 37 10 C38.32 10.33 39.64 10.66 41 11 C41.495 13.475 41.495 13.475 42 16 C41.113125 15.13375 40.22625 14.2675 39.3125 13.375 C27.73284148 3.69477163 14.48732838 2.43956488 0 1 C0 0.67 0 0.34 0 0 Z " fill="#4D1414" transform="translate(384,12)"/>
<path d="M0 0 C2.75039833 0.30926968 5.50028178 0.6222884 8.25 0.9375 C9.02730469 1.02451172 9.80460937 1.11152344 10.60546875 1.20117188 C11.73662109 1.33168945 11.73662109 1.33168945 12.890625 1.46484375 C13.58188477 1.543396 14.27314453 1.62194824 14.98535156 1.70288086 C17 2 17 2 18.86804199 2.51147461 C21.03528889 3.00808624 22.90638606 3.12054941 25.12597656 3.11352539 C26.32676849 3.11341209 26.32676849 3.11341209 27.55181885 3.11329651 C28.40612488 3.10813522 29.26043091 3.10297394 30.140625 3.09765625 C31.46389801 3.09553383 31.46389801 3.09553383 32.81390381 3.09336853 C35.62597065 3.08778001 38.4379573 3.07522961 41.25 3.0625 C43.15885302 3.05748352 45.06770728 3.05292087 46.9765625 3.04882812 C51.65107247 3.03781434 56.32552265 3.02055758 61 3 C61.495 3.99 61.495 3.99 62 5 C55.52628257 5.07671463 49.05268443 5.12887575 42.57861328 5.16479492 C40.38097757 5.1797854 38.18337129 5.20018466 35.98583984 5.22631836 C8.32026278 5.54684186 8.32026278 5.54684186 0 0 Z " fill="#BD3839" transform="translate(37,224)"/>
<path d="M0 0 C16.22150322 -0.32443006 29.90013038 0.10074807 44 9 C45.90234375 11.2265625 45.90234375 11.2265625 47 13 C45.35 13 43.7 13 42 13 C41.505 11.515 41.505 11.515 41 10 C38.67730041 8.75501391 38.67730041 8.75501391 35.9375 7.8125 C35.01839844 7.46832031 34.09929687 7.12414062 33.15234375 6.76953125 C32.44207031 6.51558594 31.73179687 6.26164062 31 6 C31 5.34 31 4.68 31 4 C15.655 2.515 15.655 2.515 0 1 C0 0.67 0 0.34 0 0 Z " fill="#B43738" transform="translate(376,13)"/>
<path d="M0 0 C2.42535632 4.85071265 3.12754104 8.04261213 3.09765625 13.421875 C3.09443359 14.44667969 3.09121094 15.47148437 3.08789062 16.52734375 C3.07951172 17.59082031 3.07113281 18.65429688 3.0625 19.75 C3.05798828 20.82894531 3.05347656 21.90789062 3.04882812 23.01953125 C3.03705727 25.67974383 3.02061399 28.33984365 3 31 C2.01 30.67 1.02 30.34 0 30 C0 20.1 0 10.2 0 0 Z " fill="#491A1C" transform="translate(365,198)"/>
<path d="M0 0 C0.495 1.485 0.495 1.485 1 3 C-3 1.66666667 -7 0.33333333 -11 -1 C-20.0530756 -1.91232545 -26.39260297 1.49766298 -34 6 C-34.33 3.36 -34.66 0.72 -35 -2 C-34.01 -1.67 -33.02 -1.34 -32 -1 C-32 -0.34 -32 0.32 -32 1 C-30.68 1 -29.36 1 -28 1 C-28 0.34 -28 -0.32 -28 -1 C-19.5719666 -4.74579262 -8.22688653 -4.1910554 0 0 Z " fill="#C33437" transform="translate(304,146)"/>
<path d="M0 0 C0.5625 1.9375 0.5625 1.9375 1 4 C0.67 4.33 0.34 4.66 0 5 C-0.26582874 10.2279653 0.02846859 14.07117148 2 19 C3.32 18.67 4.64 18.34 6 18 C6.79560764 20.91499943 7.25322499 23.74561419 7.5625 26.75 C7.64628906 27.54921875 7.73007813 28.3484375 7.81640625 29.171875 C7.87699219 29.77515625 7.93757813 30.3784375 8 31 C5.40076024 28.62644274 3.67899574 26.07671398 1.875 23.0625 C1.35679688 22.20785156 0.83859375 21.35320312 0.3046875 20.47265625 C-1.84219745 16.40385932 -2.15636455 13.01441153 -2.1875 8.4375 C-2.20167969 7.48746094 -2.21585937 6.53742188 -2.23046875 5.55859375 C-2 3 -2 3 0 0 Z " fill="#371815" transform="translate(82,183)"/>
<path d="M0 0 C0.66 0 1.32 0 2 0 C2 0.66 2 1.32 2 2 C2.886875 1.67 3.77375 1.34 4.6875 1 C13.45161884 -1.46601724 23.74968101 -0.92580235 32 3 C34.02784575 4.5415298 35.38211065 6.00460314 37 8 C36.67 8.66 36.34 9.32 36 10 C35.16855469 9.50628906 34.33710938 9.01257813 33.48046875 8.50390625 C32.39378906 7.86324219 31.30710937 7.22257813 30.1875 6.5625 C29.10855469 5.92441406 28.02960938 5.28632813 26.91796875 4.62890625 C21.3591977 1.52581719 16.2449055 1.46395661 10 2 C6.59758176 3.3648868 6.59758176 3.3648868 4 5 C3.01 5 2.02 5 1 5 C0.67 3.35 0.34 1.7 0 0 Z " fill="#C03537" transform="translate(319,168)"/>
<path d="M0 0 C1.010625 0.66 2.02125 1.32 3.0625 2 C3.0625 2.66 3.0625 3.32 3.0625 4 C1.268125 3.2575 1.268125 3.2575 -0.5625 2.5 C-10.40109382 -0.76406179 -21.02286417 0.73379752 -30.9375 3 C-23.78087962 -4.15662038 -8.56747604 -4.28373802 0 0 Z " fill="#C43437" transform="translate(200.9375,34)"/>
<path d="M0 0 C0.79019531 0.00902344 1.58039062 0.01804687 2.39453125 0.02734375 C3.28205078 0.04474609 3.28205078 0.04474609 4.1875 0.0625 C4.1875 0.7225 4.1875 1.3825 4.1875 2.0625 C3.16011719 2.20945312 2.13273437 2.35640625 1.07421875 2.5078125 C-7.94702638 3.92372256 -15.01361975 6.07241187 -22.8125 11.0625 C-23.8025 11.5575 -23.8025 11.5575 -24.8125 12.0625 C-24.734375 10.29296875 -24.734375 10.29296875 -23.8125 8.0625 C-21.55306625 6.63408835 -19.4669024 5.492025 -17.0625 4.375 C-16.44117188 4.06755859 -15.81984375 3.76011719 -15.1796875 3.44335938 C-10.01774564 0.95495491 -5.68934336 -0.08491557 0 0 Z " fill="#491412" transform="translate(49.8125,11.9375)"/>
<path d="M0 0 C0.66 0.99 1.32 1.98 2 3 C-4.75 1.25 -4.75 1.25 -7 -1 C-12.6202235 -2.92728903 -19.94057716 -3.1412894 -25.4921875 -1.0703125 C-27.34851898 -0.08434889 -29.1770986 0.95351957 -31 2 C-31.66 1.67 -32.32 1.34 -33 1 C-31.75443908 0.18071114 -30.50333365 -0.63015186 -29.25 -1.4375 C-28.20585937 -2.11619141 -28.20585937 -2.11619141 -27.140625 -2.80859375 C-18.20110141 -7.78405852 -8.40214723 -4.65329527 0 0 Z " fill="#571313" transform="translate(305,149)"/>
<path d="M0 0 C8.9233227 3.14940801 13.18863341 7.99793768 18 16 C19.43705129 19.23336539 20.1712112 20.91566238 19.625 24.375 C19.41875 24.91125 19.2125 25.4475 19 26 C18 25 18 25 17.9375 22.4375 C17.958125 21.633125 17.97875 20.82875 18 20 C17.34 20 16.68 20 16 20 C15.7525 19.113125 15.505 18.22625 15.25 17.3125 C13.9432253 13.84954704 12.52885731 11.68212139 10 9 C9.01 8.67 8.02 8.34 7 8 C6.67 7.01 6.34 6.02 6 5 C5.360625 4.855625 4.72125 4.71125 4.0625 4.5625 C2 4 2 4 0.75 1.9375 C0.5025 1.298125 0.255 0.65875 0 0 Z " fill="#4D1412" transform="translate(345,172)"/>
<path d="M0 0 C0.33 0 0.66 0 1 0 C1.69438113 12.49886042 -3.71926654 21.64648689 -10 32 C-11.32 32 -12.64 32 -14 32 C-13.62488281 31.53851563 -13.24976563 31.07703125 -12.86328125 30.6015625 C-5.36187072 21.04057074 -2.11831979 11.95214579 0 0 Z " fill="#511511" transform="translate(433,188)"/>
<path d="M0 0 C0.33 0 0.66 0 1 0 C1.53158528 13.1567358 1.66381487 26.17023141 -7 37 C-7.33 36.34 -7.66 35.68 -8 35 C-7.00217877 33.33696462 -6.00279103 31.67483013 -4.9921875 30.01953125 C-3.38002804 26.73808857 -3.25427109 23.62336304 -3 20 C-2.34 20 -1.68 20 -1 20 C-0.67 13.4 -0.34 6.8 0 0 Z " fill="#C63335" transform="translate(432,176)"/>
<path d="M0 0 C3.875 1.875 3.875 1.875 5 3 C7.32817964 3.36760731 9.6618385 3.70241581 12 4 C12.06058594 4.59167969 12.12117188 5.18335938 12.18359375 5.79296875 C12.62012371 9.90978208 13.08671346 13.95544533 14 18 C12.421218 15.97013743 11.01498898 14.02840016 9.8125 11.75 C7.50471247 8.24852926 4.66348074 5.56571487 1.64453125 2.671875 C0 1 0 1 0 0 Z " fill="#C5302F" transform="translate(305,149)"/>
<path d="M0 0 C0.99 0.33 1.98 0.66 3 1 C2.20335937 1.63615234 2.20335937 1.63615234 1.390625 2.28515625 C-6.61000606 8.92801598 -9.35617688 15.04560538 -12 25 C-12.33 25 -12.66 25 -13 25 C-12.67 21.37 -12.34 17.74 -12 14 C-11.34 14 -10.68 14 -10 14 C-10 12.68 -10 11.36 -10 10 C-9.34 10 -8.68 10 -8 10 C-8 9.01 -8 8.02 -8 7 C-6.35546875 5.140625 -6.35546875 5.140625 -4.1875 3.25 C-3.47980469 2.61578125 -2.77210938 1.9815625 -2.04296875 1.328125 C-1.36878906 0.88984375 -0.69460937 0.4515625 0 0 Z " fill="#C23334" transform="translate(167,37)"/>
<path d="M0 0 C0.99 0.99 1.98 1.98 3 3 C2.67 3.66 2.34 4.32 2 5 C-10.87 5 -23.74 5 -37 5 C-37 4.67 -37 4.34 -37 4 C-24.79 4 -12.58 4 0 4 C0 2.68 0 1.36 0 0 Z " fill="#D63031" transform="translate(95,223)"/>
<path d="M0 0 C1.8125 0.125 1.8125 0.125 4 1 C5.5625 3.6875 5.5625 3.6875 7 7 C7.53625 7.886875 8.0725 8.77375 8.625 9.6875 C10.56670433 14.36524225 10.74088655 18.9785601 11 24 C9.2643358 20.80393112 8.22767571 17.60405576 7.1875 14.125 C5.52617123 8.98428456 3.68017256 5.88462659 0 2 C0 1.34 0 0.68 0 0 Z " fill="#BE3234" transform="translate(356,178)"/>
<path d="M0 0 C0.66 0 1.32 0 2 0 C2 0.66 2 1.32 2 2 C2.57234375 2.24492187 3.1446875 2.48984375 3.734375 2.7421875 C6.38024402 4.21110099 8.14853139 5.95348244 10.25 8.125 C10.95640625 8.84945312 11.6628125 9.57390625 12.390625 10.3203125 C13.18726563 11.15175781 13.18726563 11.15175781 14 12 C13.01 12.66 12.02 13.32 11 14 C9.62437146 12.71034824 8.29233607 11.37310707 7 10 C7 9.34 7 8.68 7 8 C6.34 8 5.68 8 5 8 C4.731875 7.38125 4.46375 6.7625 4.1875 6.125 C3.04443152 3.7004767 3.04443152 3.7004767 0 2 C0 1.34 0 0.68 0 0 Z " fill="#421513" transform="translate(140,185)"/>
<path d="M0 0 C5.68193002 3.78795335 7.90101751 8.70305252 10 15 C10.12781786 17.67394964 10.04391871 20.32095857 10 23 C9.67 23 9.34 23 9 23 C8 18 7 13 6 8 C5.01 7.67 4.02 7.34 3 7 C0 2.66666667 0 2.66666667 0 0 Z " fill="#521413" transform="translate(207,41)"/>
<path d="M0 0 C5.2193712 -0.6524214 8.02909179 0.87923947 12.265625 3.61328125 C14 5 14 5 16 8 C14.35 8 12.7 8 11 8 C10.67 7.01 10.34 6.02 10 5 C7.67730041 3.75501391 7.67730041 3.75501391 4.9375 2.8125 C4.01839844 2.46832031 3.09929687 2.12414062 2.15234375 1.76953125 C1.44207031 1.51558594 0.73179687 1.26164062 0 1 C0 0.67 0 0.34 0 0 Z " fill="#CD3234" transform="translate(407,18)"/>
<path d="M0 0 C1.85625 0.6496875 1.85625 0.6496875 3.75 1.3125 C9.41697218 3.21052896 15.19021215 4.61390848 21 6 C21 6.33 21 6.66 21 7 C12.82384493 7.79810624 7.187913 5.82626548 0 2 C0 1.34 0 0.68 0 0 Z " fill="#4C130F" transform="translate(31,222)"/>
<path d="M0 0 C1.32 0.66 2.64 1.32 4 2 C4 2.66 4 3.32 4 4 C4.66 4.33 5.32 4.66 6 5 C5.34 6.98 4.68 8.96 4 11 C1.35534962 7.8745041 0.15585285 4.91211733 -1 1 C-0.67 0.67 -0.34 0.34 0 0 Z " fill="#2E2A2B" transform="translate(137,289)"/>
<path d="M0 0 C1.65 0 3.3 0 5 0 C4.38511719 0.99580078 4.38511719 0.99580078 3.7578125 2.01171875 C2.94957031 3.33623047 2.94957031 3.33623047 2.125 4.6875 C1.59132813 5.55761719 1.05765625 6.42773438 0.5078125 7.32421875 C-0.90640814 9.83391082 -1.99894789 12.30299069 -3 15 C-4.08629024 11.7628551 -3.94001857 10.06820935 -2.625 6.9375 C-2.34914063 6.26589844 -2.07328125 5.59429687 -1.7890625 4.90234375 C-1.52867188 4.27457031 -1.26828125 3.64679687 -1 3 C-0.67 2.01 -0.34 1.02 0 0 Z " fill="#451616" transform="translate(19,25)"/>
<path d="M0 0 C0.5625 1.9375 0.5625 1.9375 1 4 C0.67 4.33 0.34 4.66 0 5 C-0.43494682 11.19799214 0.55850085 15.30316864 3 21 C2.34 21.33 1.68 21.66 1 22 C-1.8723714 15.65684649 -2.86708334 9.97044919 -2 3 C-1.34 2.01 -0.68 1.02 0 0 Z " fill="#4C1515" transform="translate(82,183)"/>
<path d="M0 0 C2 0 2 0 4 1.875 C6.8931097 6.3954839 8.60899759 11.92378138 7.54296875 17.30859375 C7.36378906 17.86675781 7.18460937 18.42492187 7 19 C6.66226562 17.96359375 6.32453125 16.9271875 5.9765625 15.859375 C5.52620263 14.4895304 5.07567286 13.11974166 4.625 11.75 C4.40328125 11.06808594 4.1815625 10.38617188 3.953125 9.68359375 C2.84426387 6.3243968 1.71121755 3.10258135 0 0 Z " fill="#4D1514" transform="translate(426,28)"/>
<path d="M0 0 C2.95183101 2.95183101 3.08663988 5.95511947 4 10 C3.01 10.33 2.02 10.66 1 11 C-1.30441554 7.54337669 -1.25860135 6.05142119 -1 2 C-0.67 1.34 -0.34 0.68 0 0 Z " fill="#312D31" transform="translate(441,29)"/>
<path d="M0 0 C0.99 0.33 1.98 0.66 3 1 C3.625 2.8125 3.625 2.8125 4 5 C4.185625 5.7425 4.37125 6.485 4.5625 7.25 C4.706875 7.8275 4.85125 8.405 5 9 C4.01 9.66 3.02 10.32 2 11 C2 9.68 2 8.36 2 7 C1.01 6.67 0.02 6.34 -1 6 C-1.33 4.35 -1.66 2.7 -2 1 C-1.34 1 -0.68 1 0 1 C0 0.67 0 0.34 0 0 Z " fill="#292428" transform="translate(221,131)"/>
<path d="M0 0 C4.23429756 1.31061591 8.07407404 2.94356259 12 5 C12 5.99 12 6.98 12 8 C6.80421104 6.63919813 3.86388964 4.58789752 0 1 C0 0.67 0 0.34 0 0 Z " fill="#C03233" transform="translate(25,216)"/>
<path d="M0 0 C1.32 0 2.64 0 4 0 C4 0.66 4 1.32 4 2 C4.928125 2.12375 4.928125 2.12375 5.875 2.25 C8 3 8 3 9.125 5 C9.41375 5.66 9.7025 6.32 10 7 C10.66 7.33 11.32 7.66 12 8 C12 8.66 12 9.32 12 10 C8.78727751 8.56006357 6.3793336 6.76981628 3.75 4.4375 C3.04359375 3.81746094 2.3371875 3.19742188 1.609375 2.55859375 C1.07828125 2.04425781 0.5471875 1.52992188 0 1 C0 0.67 0 0.34 0 0 Z " fill="#BE3435" transform="translate(142,186)"/>
<path d="M0 0 C4.06225548 0.57823096 6.84762346 1.89117737 10.3125 4.0625 C11.19550781 4.61035156 12.07851562 5.15820312 12.98828125 5.72265625 C13.65214844 6.14417969 14.31601563 6.56570312 15 7 C14.01 7.33 13.02 7.66 12 8 C9.95912192 6.73012031 7.96374635 5.38617389 6 4 C4.01492052 2.97069953 2.01885749 1.96136071 0 1 C0 0.67 0 0.34 0 0 Z " fill="#4E1112" transform="translate(120,173)"/>
<path d="M0 0 C9.41002278 -0.3690205 9.41002278 -0.3690205 14 2 C13.67 2.99 13.34 3.98 13 5 C11.453125 4.2884375 11.453125 4.2884375 9.875 3.5625 C6.61465838 2.15477612 3.53948917 1.43164502 0 1 C0 0.67 0 0.34 0 0 Z " fill="#B93334" transform="translate(242,122)"/>
<path d="M0 0 C-0.99 0.33 -1.98 0.66 -3 1 C-3.73323796 3.01508358 -3.73323796 3.01508358 -4 5 C-5.37562854 3.71034824 -6.70766393 2.37310707 -8 1 C-8 0.34 -8 -0.32 -8 -1 C-4.37673261 -2.2077558 -3.35853631 -1.54311128 0 0 Z " fill="#2B2628" transform="translate(17,219)"/>
<path d="M0 0 C0.99 0.33 1.98 0.66 3 1 C3 1.66 3 2.32 3 3 C-2.47619048 8 -2.47619048 8 -5 8 C-3.62845496 5.04590299 -2.01136276 2.55991624 0 0 Z " fill="#2D2B2C" transform="translate(175,49)"/>
<path d="M0 0 C0.6875 1.6875 0.6875 1.6875 1 4 C0.02616054 5.68208635 -0.97695052 7.34738161 -2 9 C-2.71401232 12.19395026 -2.71401232 12.19395026 -3 15 C-3.33 15 -3.66 15 -4 15 C-4.29268781 9.34136895 -4.03522952 5.97777642 -1 1 C-0.67 0.67 -0.34 0.34 0 0 Z " fill="#481615" transform="translate(160,47)"/>
<path d="M0 0 C0.99 0.33 1.98 0.66 3 1 C2.67 3.64 2.34 6.28 2 9 C1.34 8.67 0.68 8.34 0 8 C0 7.34 0 6.68 0 6 C-0.66 6 -1.32 6 -2 6 C-2.33 5.01 -2.66 4.02 -3 3 C-2.01 3.33 -1.02 3.66 0 4 C0 2.68 0 1.36 0 0 Z " fill="#2A191A" transform="translate(428,22)"/>
<path d="M0 0 C-4.33664919 3.11696661 -7.80408388 3.55966813 -13 4 C-11.72807637 1.45615274 -10.80051531 1.30631844 -8.1875 0.3125 C-7.50042969 0.04050781 -6.81335937 -0.23148438 -6.10546875 -0.51171875 C-3.70623504 -1.06812731 -2.3105636 -0.77364938 0 0 Z " fill="#DF2E2D" transform="translate(44,18)"/>
<path d="M0 0 C0.99 0.33 1.98 0.66 3 1 C3 1.66 3 2.32 3 3 C3.66 3 4.32 3 5 3 C5.66 5.31 6.32 7.62 7 10 C3.60582235 6.87378374 1.3937282 4.43458973 0 0 Z " fill="#4A1613" transform="translate(90,214)"/>
<path d="M0 0 C0.33 1.32 0.66 2.64 1 4 C0.34 4 -0.32 4 -1 4 C-1.33 5.32 -1.66 6.64 -2 8 C-2.66 8 -3.32 8 -4 8 C-3.6875 5.125 -3.6875 5.125 -3 2 C-2.01 1.34 -1.02 0.68 0 0 Z " fill="#292728" transform="translate(333,325)"/>
<path d="M0 0 C1.41493551 -0.10884119 2.83232943 -0.18597617 4.25 -0.25 C5.03890625 -0.29640625 5.8278125 -0.3428125 6.640625 -0.390625 C9 0 9 0 13 4 C8.71 3.01 4.42 2.02 0 1 C0 0.67 0 0.34 0 0 Z " fill="#B33535" transform="translate(112,170)"/>
<path d="M0 0 C2.475 0.495 2.475 0.495 5 1 C5.33 1.99 5.66 2.98 6 4 C6.66 4 7.32 4 8 4 C8 4.66 8 5.32 8 6 C4.63408134 4.55746343 2.48952921 2.66735273 0 0 Z " fill="#BE3234" transform="translate(134,179)"/>
<path d="M0 0 C0.99 0 1.98 0 3 0 C4.42258812 3.82320557 5.24042276 6.91281305 5 11 C0 3.5 0 3.5 0 0 Z " fill="#C73131" transform="translate(212,45)"/>
<path d="M0 0 C0.66 0.33 1.32 0.66 2 1 C1.67 1.99 1.34 2.98 1 4 C0.34 4 -0.32 4 -1 4 C-1.33 4.66 -1.66 5.32 -2 6 C-2.33 4.35 -2.66 2.7 -3 1 C-2.01 0.67 -1.02 0.34 0 0 Z " fill="#292728" transform="translate(150,312)"/>
<path d="M0 0 C0.66 0.33 1.32 0.66 2 1 C0.02 3.97 0.02 3.97 -2 7 C-2.99 6.67 -3.98 6.34 -5 6 C-3.35 4.02 -1.7 2.04 0 0 Z " fill="#3B1311" transform="translate(424,214)"/>
<path d="M0 0 C1.9451 2.91765 2.45276317 4.62537285 3 8 C2.01 7.67 1.02 7.34 0 7 C-0.38133299 5.0085944 -0.71325582 3.00720923 -1 1 C-0.67 0.67 -0.34 0.34 0 0 Z M-1 8 C1 9 1 9 1 9 Z " fill="#302D2E" transform="translate(174,350)"/>
<path d="M0 0 C1.32 0 2.64 0 4 0 C6.1385485 2.1385485 6.42655063 3.13275314 7 6 C3.63279613 4.60667426 2.0140476 3.0210714 0 0 Z " fill="#C13131" transform="translate(256,127)"/>
</svg>
